HIERARCHY
ROOT hip
{
	OFFSET 0.000000 0.000000 0.000000 
	CHANNELS 6 Xposition Yposition Zposition Xrotation Zrotation Yrotation
	JOINT abdomen
	{
		OFFSET 0.000000 3.402643 0.000000 
		CHANNELS 3 Xrotation Zrotation Yrotation
		JOINT chest
		{
			OFFSET 0.000000 8.438565 -0.680529 
			CHANNELS 3 Xrotation Zrotation Yrotation
			JOINT neck
			{
				OFFSET 0.000000 10.207942 -0.272212 
				CHANNELS 3 Xrotation Zrotation Yrotation
				JOINT head
				{
					OFFSET 0.000000 3.130431 0.000000 
					CHANNELS 3 Xrotation Zrotation Yrotation
					End Site
					{
						OFFSET 0.000000 3.130435 0.000000 
					}
				}
			}
			JOINT lCollar
			{
				OFFSET 3.470700 6.669187 -0.816635 
				CHANNELS 3 Yrotation Zrotation Xrotation
				JOINT lShldr
				{
					OFFSET 3.198488 0.000000 0.000000 
					CHANNELS 3 Zrotation Yrotation Xrotation
					JOINT lForeArm
					{
						OFFSET 10.139888 0.000000 0.000000 
						CHANNELS 3 Yrotation Zrotation Xrotation
						JOINT lHand
						{
							OFFSET 8.370511 0.000000 0.000000 
							CHANNELS 3 Zrotation Yrotation Xrotation
							End Site
							{
								OFFSET 4.083176 0.000000 0.000000 
							}
						}
					}
				}
			}
			JOINT rCollar
			{
				OFFSET -3.470700 6.669187 -0.816635 
				CHANNELS 3 Yrotation Zrotation Xrotation
				JOINT rShldr
				{
					OFFSET -3.198488 0.000000 0.000000 
					CHANNELS 3 Zrotation Yrotation Xrotation
					JOINT rForeArm
					{
						OFFSET -10.139888 0.000000 0.000000 
						CHANNELS 3 Yrotation Zrotation Xrotation
						JOINT rHand
						{
							OFFSET -8.370511 0.000000 0.000000 
							CHANNELS 3 Zrotation Yrotation Xrotation
							End Site
							{
								OFFSET -4.083176 0.000000 0.000000 
							}
						}
					}
				}
			}
		}
	}
	JOINT lThigh
	{
		OFFSET 5.308129 -1.633274 1.361059 
		CHANNELS 3 Xrotation Zrotation Yrotation
		JOINT lShin
		{
			OFFSET -2.041588 -20.007561 0.000000 
			CHANNELS 3 Xrotation Zrotation Yrotation
			JOINT lFoot
			{
				OFFSET 0.000000 -19.190928 -1.224953 
				CHANNELS 3 Xrotation Yrotation Zrotation
				End Site
				{
					OFFSET 0.000000 -2.449906 4.627600 
				}
			}
		}
	}
	JOINT rThigh
	{
		OFFSET -5.308129 -1.633274 1.361059 
		CHANNELS 3 Xrotation Zrotation Yrotation
		JOINT rShin
		{
			OFFSET 2.041588 -20.007561 0.000000 
			CHANNELS 3 Xrotation Zrotation Yrotation
			JOINT rFoot
			{
				OFFSET 0.000000 -19.190928 -1.224953 
				CHANNELS 3 Xrotation Yrotation Zrotation
				End Site
				{
					OFFSET 0.000000 -2.449906 4.627600 
				}
			}
		}
	}
}
MOTION
Frames: 16
Frame Time: 0.033333
52.567268 52.417286 -44.382156 11.064454 -14.511719 72.722168 36.657684 -2.987200 -3.883763 -16.679689 5.595703 3.242188 -0.009765 0.000000 0.000000 -34.980469 5.185547 -37.021488 2.000000 -2.000000 0.000000 -87.333984 31.748045 -63.686268 -83.744125 0.500506 0.452718 20.565916 41.425915 -19.197073 -2.000000 2.000000 0.000000 35.605469 -2.900391 -66.768074 143.991440 -0.775100 0.299579 62.254448 -44.743793 -41.779297 -25.372364 -0.528015 7.485619 15.510789 -6.056095 -1.645540 -3.145519 4.941310 -2.581579 -25.201881 -14.264051 -18.456141 25.024445 5.086817 2.276580 -8.295145 -8.749545 3.678150 
52.651081 52.326313 -44.465485 10.869141 -14.179687 72.519531 36.657684 -2.987200 -3.883763 -16.503908 5.585938 3.271484 -0.009765 0.000000 0.000000 -35.156246 5.166015 -37.381931 2.000000 -2.000000 0.000000 -87.226563 31.757814 -63.271484 -83.764847 0.847971 0.373346 20.810583 40.835129 -19.018042 -2.000000 2.000000 0.000000 35.761719 -1.503906 -68.506111 144.327942 -0.598961 0.134103 64.142570 -44.778553 -42.207027 -25.372364 -0.528017 7.485620 16.215403 -6.017835 -1.705511 -3.425243 4.975986 -2.674224 -25.016146 -14.263999 -18.487982 25.379816 5.048491 2.318269 -8.842625 -8.429460 3.135275 
52.805843 52.260162 -44.496216 10.664063 -13.847656 72.441406 36.481670 -2.983779 -3.892906 -16.503908 5.585938 3.271484 -0.009765 0.000000 0.000000 -35.156250 5.322265 -37.832035 2.000000 -2.000000 0.000000 -86.875000 31.933594 -63.012417 -83.764847 0.847971 0.373346 20.640291 40.411457 -19.046165 -2.000000 2.000000 0.000000 36.425781 -0.009766 -69.296883 144.506638 -0.582277 0.017733 66.082092 -44.641266 -42.829151 -25.018997 -0.507553 7.494858 17.097107 -5.988533 -1.831004 -4.007413 5.161917 -2.543504 -24.624418 -14.399217 -18.503906 25.750008 5.146083 2.380090 -8.996283 -7.991454 3.256990 
52.966908 52.227074 -44.520630 10.478516 -13.505859 72.370766 36.305656 -2.980358 -3.902050 -16.503908 5.585938 3.271484 -0.009765 0.000000 0.000000 -34.814453 5.332031 -38.154301 2.000000 -2.000000 0.000000 -86.806641 32.119141 -63.154293 -83.764847 0.847971 0.373346 20.541796 40.047935 -18.852942 -2.000000 2.000000 0.000000 36.914066 1.015625 -69.648262 144.668045 -0.583513 0.203476 67.386818 -44.724209 -42.759521 -24.884897 -0.303342 7.251033 17.631178 -5.969206 -1.867959 -4.454267 5.534747 -2.453018 -24.042755 -14.335809 -18.942329 26.234505 4.842700 2.862814 -9.227054 -8.029703 3.387388 
53.131256 52.193993 -44.538609 10.273438 -13.154296 72.302467 35.965355 -3.106126 -4.011724 -16.328125 5.595703 3.281250 -0.009765 0.000000 0.000000 -34.658199 5.488281 -38.436569 2.000000 -2.000000 0.000000 -86.669922 32.294922 -63.007813 -83.940147 0.849130 0.392837 20.553751 40.233795 -18.557301 -2.000000 2.000000 0.000000 37.207031 1.708984 -70.654007 144.876160 -0.770966 0.065240 69.044563 -44.416306 -43.495583 -24.356182 -0.303528 7.251293 17.808100 -5.930573 -1.898190 -4.769256 5.434881 -2.833671 -23.581684 -14.538234 -19.148920 26.438450 5.018190 2.752582 -9.618052 -7.519009 2.927949 
53.288811 52.169178 -44.538254 10.087891 -12.841796 72.226563 35.789333 -3.102706 -4.020867 -16.328125 5.595703 3.281250 -0.009765 0.000000 0.000000 -34.306641 5.498047 -38.749065 2.000000 -2.000000 0.000000 -86.796875 32.421875 -63.232422 -83.940147 0.849130 0.392837 20.499498 39.929817 -18.170816 -2.000000 2.000000 0.000000 37.880859 2.246094 -71.220703 144.869141 -0.657377 -0.035612 70.273155 -44.613689 -43.816212 -24.023298 -0.118649 7.190843 17.766895 -5.771669 -1.843636 -4.601755 5.612520 -2.976580 -23.053675 -14.351969 -19.423855 26.437098 5.027807 2.744935 -9.609884 -7.349047 3.203439 
53.454376 52.177448 -44.533512 9.882813 -12.500001 72.146324 35.613552 -3.102706 -4.020868 -16.152344 5.400391 3.261719 -0.009765 0.000000 0.000000 -33.955082 5.673828 -39.160156 2.000000 -2.000000 0.000000 -86.640625 32.607422 -63.256458 -83.919426 0.501665 0.472208 20.092999 39.853058 -18.267332 -2.000000 2.000000 0.000000 38.056644 2.910156 -71.415520 145.040710 -0.774434 0.123713 71.226540 -44.100094 -43.839378 -23.504969 -0.087472 7.169309 17.984055 -5.929752 -1.894676 -5.153597 5.715709 -2.633808 -22.292765 -14.303878 -19.696047 26.059204 4.696402 2.564540 -9.168706 -6.868995 3.101211 
53.612286 52.193993 -44.510433 9.882813 -12.148438 72.204979 35.254181 -3.246762 -4.137939 -16.152344 5.400391 3.261719 -0.009765 0.000000 0.000000 -33.417969 5.722656 -39.276375 2.000000 -2.000000 0.000000 -86.474609 32.802731 -63.002518 -84.115707 0.830212 0.403744 20.099583 39.931347 -18.599766 -2.000000 2.000000 0.000000 38.378906 2.958984 -71.767075 145.040710 -0.774434 0.123713 72.013611 -43.959229 -44.354717 -22.987980 -0.077811 6.986537 17.796700 -5.938744 -1.849806 -5.320457 5.952127 -2.875472 -21.757111 -14.286219 -19.599438 25.912390 5.018471 2.377318 -9.751163 -7.041287 3.117296 
53.763641 52.193993 -44.491722 9.677734 -11.787109 72.138672 35.077957 -3.234199 -4.143105 -16.152344 5.400391 3.261719 -0.009765 0.000000 0.000000 -32.900391 5.751953 -39.413086 2.000000 -2.000000 0.000000 -86.406250 32.978512 -63.007813 -84.115707 0.830212 0.403744 20.128937 40.420403 -18.760828 -2.000000 2.000000 0.000000 38.564449 3.095703 -71.474609 145.040710 -0.774434 0.123713 72.065994 -43.834892 -44.566124 -22.460306 -0.048510 6.810141 17.788681 -5.929740 -1.867109 -5.244282 6.029111 -2.865889 -21.197769 -14.233756 -19.817266 25.726875 4.862258 2.455205 -9.397513 -6.453320 3.060449 
53.905640 52.185722 -44.468163 9.511719 -11.630859 72.009750 34.732712 -3.436396 -4.104753 -15.976563 5.400391 3.282169 -0.009765 0.000000 0.000000 -32.363285 5.625000 -39.443363 2.000000 -2.000000 0.000000 -86.015625 33.183594 -63.154301 -84.270515 0.493076 0.492280 20.052261 40.487221 -18.855244 -2.000000 2.000000 0.000000 38.769531 2.802734 -71.523438 145.040710 -0.764685 0.124290 72.307838 -43.829239 -45.129799 -21.770443 0.155539 6.929946 17.626842 -6.026649 -2.069333 -5.391040 6.091398 -2.821683 -20.485205 -14.048537 -19.944014 25.563105 5.136138 2.051086 -9.434581 -6.347741 2.914598 
54.050316 52.193993 -44.444592 9.316407 -11.279297 72.107460 34.380901 -3.432975 -4.113895 -15.976563 5.400391 3.282169 -0.009765 0.000000 0.000000 -31.826172 5.507812 -39.276409 2.000000 -2.000000 0.000000 -85.605469 33.222656 -62.924339 -84.446297 0.493076 0.492280 20.014738 40.232456 -18.817619 -2.000000 2.000000 0.000000 38.769531 2.138672 -70.996094 144.876160 -0.770966 0.065240 71.758080 -43.915123 -45.262924 -21.243092 0.184792 6.745304 17.615360 -6.064974 -2.034755 -5.701154 6.236172 -2.713162 -19.927481 -13.997941 -20.179974 25.555330 4.872612 2.462057 -9.353675 -6.091326 3.009134 
54.202156 52.210545 -44.417622 9.111328 -10.937499 72.226563 34.207230 -3.562160 -4.214427 -15.800782 5.390625 3.300782 -0.009765 0.000000 0.000000 -31.103519 5.410156 -39.296879 2.000000 -2.000000 0.000000 -85.556641 33.369137 -62.998043 -84.446297 0.493076 0.492280 20.014269 39.978455 -18.693752 -2.000000 2.000000 0.000000 38.652344 1.328125 -70.468521 144.701828 -0.757750 0.007344 71.039673 -43.785671 -45.519531 -20.703150 0.185668 6.912127 17.645327 -5.987972 -2.211787 -5.639348 6.434822 -2.820538 -19.266714 -14.207699 -20.417944 25.552488 5.057668 2.480936 -9.571696 -6.153565 3.119987 
54.368694 52.218796 -44.391140 8.945313 -10.791016 72.293091 33.855625 -3.567883 -4.226995 -15.800782 5.390625 3.300782 -0.009765 0.000000 0.000000 -30.380863 5.292969 -39.130859 2.000000 -2.000000 0.000000 -85.146484 33.554688 -62.338352 -84.807762 0.658218 0.472665 19.810213 39.964558 -18.717571 -2.000000 2.000000 0.000000 38.496094 0.615234 -69.941406 144.506638 -0.582277 0.017733 70.506645 -43.813919 -45.975296 -20.562248 0.214290 6.221095 17.808399 -6.025061 -1.911196 -5.745842 6.228819 -2.713808 -18.521179 -14.163214 -20.500114 25.392895 5.056993 2.477154 -9.692128 -5.931725 3.178205 
54.512390 52.227074 -44.358112 8.740234 -10.429687 72.381042 33.506714 -3.715354 -4.335001 -15.634766 5.214844 3.281250 -0.009765 0.000000 0.000000 -29.501953 5.039062 -38.886723 2.000000 -2.000000 0.000000 -84.794922 33.759766 -62.260201 -84.993652 0.832530 0.442725 19.597198 39.940754 -18.760504 -2.000000 2.000000 0.000000 38.359375 -0.595703 -68.828087 144.166992 -0.655067 -0.074594 69.232147 -43.672668 -46.214417 -19.822063 0.097902 6.222231 17.632395 -5.997901 -1.862123 -5.839268 6.480882 -2.919147 -17.996897 -13.953206 -20.953535 25.022621 5.066871 2.437734 -9.721170 -5.734887 3.055497 
54.674065 52.251888 -44.329674 8.574219 -10.263672 72.429901 33.140182 -3.782629 -4.182990 -15.449219 5.205079 3.311433 -0.009765 0.000000 0.000000 -28.613283 4.931640 -38.740238 2.000000 -2.000000 0.000000 -84.375000 33.798832 -62.050781 -85.157509 0.639112 0.151176 20.050861 40.262501 -18.272364 -2.000000 2.000000 0.000000 38.417965 -1.601563 -67.753906 143.974884 -0.670671 0.188536 68.611992 -43.804005 -46.723789 -19.141012 0.291530 6.194521 17.448927 -5.849571 -1.980744 -5.996575 6.664662 -3.021516 -17.440746 -13.934437 -20.855305 24.856491 5.076796 2.270069 -9.956944 -5.783798 3.216831 
54.846554 52.260162 -44.290688 8.369142 -9.931642 72.517845 32.977085 -3.924368 -4.277805 -15.449219 5.205079 3.311433 -0.009765 0.000000 0.000000 -27.539064 4.667969 -38.291016 2.000000 -2.000000 0.000000 -83.789063 33.857422 -61.652279 -85.508827 0.639690 0.160922 20.050861 40.262501 -18.272364 -2.000000 2.000000 0.000000 38.056641 -2.675781 -66.523270 143.471359 -0.777247 0.006190 67.353760 -44.154186 -47.027493 -18.590467 0.253637 6.539812 17.253693 -5.638000 -2.110105 -6.009953 6.411619 -3.122358 -16.861551 -13.831264 -21.415646 24.861536 5.101529 2.576261 -9.640562 -5.394161 2.833241 
